<svg viewBox="0 0 11 11" xmlns="http://www.w3.org/2000/svg" xmlns:xlink="http://www.w3.org/1999/xlink" width="11.000000" height="11.000000" fill="none">
	<rect id="跟踪 3" width="11.000000" height="11.000000" x="0.000000" y="0.000000" />
	<path id="矢量 84" d="M10.3073 5.5C10.3073 2.845 8.15504 0.692704 5.50004 0.692704C2.84505 0.692704 0.692749 2.845 0.692749 5.5C0.692749 8.15498 2.84502 10.3073 5.5 10.3073C5.50001 10.3073 5.50003 10.3073 5.50004 10.3073C5.50005 10.3073 5.50008 10.3073 5.50009 10.3073C8.15506 10.3073 10.3073 8.15498 10.3073 5.5ZM10.101 5.17593C10.0548 5.15417 10.0034 5.14193 9.94927 5.14193L8.81094 5.14193C8.64488 3.58882 7.41122 2.35516 5.85811 2.1891L5.85811 1.05077C5.85811 0.996626 5.84587 0.945213 5.82411 0.899078C8.11308 1.05796 9.94208 2.88696 10.101 5.17593ZM5.14197 3.49601C4.30486 3.64458 3.64463 4.30481 3.49606 5.14193L2.65085 5.14193C2.81252 3.84242 3.84247 2.81247 5.14197 2.65081L5.14197 3.49601ZM3.49606 5.85807C3.64462 6.69518 4.30486 7.35541 5.14197 7.50398L5.14197 8.34919C3.84247 8.18752 2.81251 7.15757 2.65085 5.85807L3.49606 5.85807ZM5.85811 7.50397C6.69523 7.35541 7.35545 6.69517 7.50403 5.85806L8.34923 5.85806C8.18757 7.15756 7.15762 8.18751 5.85811 8.34918L5.85811 7.50397ZM7.50403 5.14193C7.35546 4.30481 6.69523 3.64459 5.85811 3.49601L5.85811 2.65081C7.15762 2.81247 8.18757 3.84242 8.34923 5.14193L7.50403 5.14193ZM5.17597 0.899078C5.15421 0.945213 5.14197 0.996626 5.14197 1.05077L5.14197 2.18911C3.58887 2.35516 2.35521 3.58882 2.18914 5.14193L1.05082 5.14193C0.996671 5.14193 0.945259 5.15417 0.899124 5.17593C1.05801 2.88696 2.887 1.05796 5.17597 0.899078ZM0.899124 5.82407C0.945259 5.84582 0.996671 5.85807 1.05082 5.85807L2.18914 5.85807C2.35521 7.41117 3.58887 8.64483 5.14197 8.8109L5.14197 9.94923C5.14197 10.0034 5.15422 10.0548 5.17597 10.1009C2.887 9.94203 1.05801 8.11304 0.899124 5.82407ZM5.82411 10.1009C5.84588 10.0548 5.85811 10.0034 5.85811 9.94922L5.85811 8.8109C7.41122 8.64483 8.64488 7.41117 8.81094 5.85807L9.94928 5.85807C10.0034 5.85807 10.0548 5.84582 10.101 5.82407C9.94208 8.11304 8.11308 9.94203 5.82411 10.1009Z" fill="rgb(0,0,0)" fill-rule="nonzero" />
</svg>
