<svg viewBox="0 0 14 14" xmlns="http://www.w3.org/2000/svg" xmlns:xlink="http://www.w3.org/1999/xlink" width="14.000000" height="14.000000" fill="none">
	<rect id="svg" width="14.000000" height="14.000000" x="0.000000" y="0.000000" />
	<path id="34885" d="M12.25 6.216L12.25 11.0833C12.25 11.2881 12.1961 11.4893 12.0937 11.6667C11.9913 11.844 11.844 11.9913 11.6667 12.0937C11.4893 12.1961 11.2881 12.25 11.0833 12.25L2.91667 12.25C2.71187 12.25 2.51069 12.1961 2.33333 12.0937C2.15598 11.9913 2.0087 11.844 1.9063 11.6667C1.80391 11.4893 1.75 11.2881 1.75 11.0833L1.75 2.91667C1.75 2.71187 1.80391 2.51069 1.9063 2.33333C2.0087 2.15598 2.15598 2.0087 2.33333 1.9063C2.51069 1.80391 2.71187 1.75 2.91667 1.75L10.1173 1.75" fill-rule="nonzero" stroke="rgb(144,0,33)" stroke-linecap="round" stroke-linejoin="round" stroke-width="1.166667" />
	<path id="34886" d="M5.25 6.41671L7 8.16671L12.8333 2.33337" fill-rule="nonzero" stroke="rgb(144,0,33)" stroke-linecap="round" stroke-linejoin="round" stroke-width="1.166667" />
	<rect id="path.[object SVGAnimatedString]" width="10.500000" height="11.000000" x="2.000000" y="2.000000" />
	<rect id="path.[object SVGAnimatedString]" width="7.580000" height="6.000000" x="5.000000" y="2.000000" />
</svg>
