<svg viewBox="0 0 11 11" xmlns="http://www.w3.org/2000/svg" xmlns:xlink="http://www.w3.org/1999/xlink" width="11.000000" height="11.000000" fill="none">
	<rect id="相机 1" width="11.000000" height="11.000000" x="0.000000" y="0.000000" />
	<path id="矢量 83" d="M2.89433 2.75L3.14458 1.94024C3.17816 1.83161 3.23445 1.73135 3.30971 1.64613C3.38498 1.56091 3.47751 1.49266 3.58116 1.44591C3.68481 1.39917 3.79721 1.375 3.91092 1.375L7.089 1.375C7.20271 1.375 7.31511 1.39917 7.41876 1.44591C7.52241 1.49266 7.61494 1.56091 7.69021 1.64613C7.76547 1.73135 7.82176 1.83161 7.85534 1.94024L8.10559 2.75L8.82288 2.75C9.51897 2.75 10.0833 3.31432 10.0833 4.01042L10.0833 8.59375C10.0833 9.28984 9.51897 9.85417 8.82288 9.85417L2.17704 9.85417C1.48095 9.85417 0.916626 9.28984 0.916626 8.59375L0.916626 4.01042C0.916626 3.31432 1.48095 2.75 2.17704 2.75L2.89433 2.75ZM3.14791 3.4375L2.17704 3.4375C2.07647 3.4375 1.97768 3.46397 1.89058 3.51426C1.80349 3.56454 1.73117 3.63686 1.68088 3.72396C1.6306 3.81105 1.60413 3.90985 1.60413 4.01042L1.60413 8.59375C1.60413 8.69432 1.6306 8.79311 1.68088 8.88021C1.73117 8.9673 1.80349 9.03963 1.89058 9.08991C1.97768 9.14019 2.07647 9.16667 2.17704 9.16667L8.82288 9.16667C8.92344 9.16667 9.02224 9.14019 9.10933 9.08991C9.19643 9.03963 9.26875 8.9673 9.31904 8.88021C9.36932 8.79311 9.39579 8.69432 9.39579 8.59375L9.39579 4.01042C9.39579 3.90985 9.36932 3.81105 9.31904 3.72396C9.26875 3.63686 9.19643 3.56454 9.10933 3.51426C9.02224 3.46397 8.92344 3.4375 8.82288 3.4375L7.85201 3.4375C7.80329 3.4375 7.75512 3.42714 7.7107 3.4071C7.66629 3.38707 7.62664 3.35782 7.59438 3.3213C7.56213 3.28478 7.53801 3.24182 7.52362 3.19527L7.19843 2.14328C7.19364 2.12776 7.1856 2.11344 7.17486 2.10126C7.16411 2.08909 7.1509 2.07933 7.1361 2.07265C7.1213 2.06597 7.10524 2.06251 7.089 2.0625L3.91092 2.0625C3.89468 2.06251 3.87862 2.06597 3.86382 2.07265C3.84902 2.07933 3.83581 2.08909 3.82506 2.10126C3.81432 2.11344 3.80628 2.12776 3.80149 2.14328L3.4763 3.19516C3.46193 3.24172 3.43781 3.2847 3.40556 3.32123C3.37331 3.35777 3.33366 3.38703 3.28924 3.40708C3.24482 3.42712 3.19664 3.43749 3.14791 3.4375L3.14791 3.4375ZM5.49996 7.79167C4.55075 7.79167 3.78121 7.02213 3.78121 6.07292C3.78121 5.12371 4.55075 4.35417 5.49996 4.35417C6.44917 4.35417 7.21871 5.12371 7.21871 6.07292C7.21871 7.02213 6.44917 7.79167 5.49996 7.79167ZM5.49996 7.10417C5.71774 7.10417 5.92993 7.03522 6.10611 6.90722C6.2823 6.77921 6.41344 6.59871 6.48074 6.39159C6.54803 6.18447 6.54803 5.96136 6.48074 5.75424C6.41344 5.54712 6.2823 5.36663 6.10611 5.23862C5.92993 5.11061 5.71774 5.04167 5.49996 5.04167C5.28218 5.04167 5.06999 5.11061 4.89381 5.23862C4.71762 5.36663 4.58648 5.54712 4.51918 5.75424C4.45189 5.96136 4.45189 6.18447 4.51918 6.39159C4.58648 6.59871 4.71762 6.77921 4.89381 6.90722C5.06999 7.03522 5.28218 7.10417 5.49996 7.10417Z" fill="rgb(255,255,255)" fill-rule="nonzero" />
</svg>
